<?xml version="1.0" encoding="iso-8859-1"?>
<!-- Uploaded to: SVG Repo, www.svgrepo.com, Generator: SVG Repo Mixer Tools -->
<svg fill="#000000" height="800px" width="800px" version="1.1" id="Layer_1" xmlns="http://www.w3.org/2000/svg" xmlns:xlink="http://www.w3.org/1999/xlink" 
	 viewBox="0 0 490.667 490.667" xml:space="preserve">
<g>
	<g>
		<path d="M480,229.333H267.093L382.507,32.107c2.987-5.12,1.28-11.627-3.84-14.613c-5.12-2.987-11.627-1.28-14.613,3.84
			l-118.72,202.88L126.507,21.227c-2.987-5.12-9.493-6.827-14.613-3.84c-5.12,2.987-6.827,9.493-3.84,14.613l115.52,197.333H10.667
			C4.8,229.333,0,234.133,0,240c0,5.867,4.8,10.667,10.667,10.667h219.2L108.16,458.56c-2.987,5.12-1.28,11.627,3.84,14.613
			c5.12,2.987,11.627,1.28,14.613-3.84l118.72-202.88L364.16,469.44c2.987,5.12,9.493,6.827,14.613,3.84
			c5.12-2.987,6.827-9.493,3.84-14.613l-121.813-208H480c5.867,0,10.667-4.8,10.667-10.667
			C490.667,234.133,485.867,229.333,480,229.333z"/>
	</g>
</g>
</svg>